<?xml version="1.0" encoding="UTF-8"?>
<svg id="Layer_1" data-name="Layer 1" xmlns="http://www.w3.org/2000/svg" viewBox="0 0 1024 1024">
  <defs>
    <style>
      .cls-1 {
        fill: #231f20;
        stroke-width: 0px;
      }
    </style>
  </defs>
  <path class="cls-1" d="m757.52,514.33c-.59-.78-1.19-1.56-1.8-2.32-1-1.29-2.02-2.56-3.04-3.83s-2.05-2.53-3.09-3.78c-.81-.98-1.63-1.97-2.46-2.93-4.49-5.27-9.14-10.4-13.97-15.35-1.02-1.05-2.04-2.09-3.07-3.12-1.24-1.24-2.48-2.46-3.73-3.66-1.17-1.12-2.34-2.24-3.53-3.36-1.19-1.12-2.39-2.22-3.59-3.31-1.2-1.1-2.43-2.19-3.65-3.26-1.02-.9-2.04-1.78-3.07-2.66-.15-.14-.31-.27-.46-.39,24.44-6.89,46.32-19.84,63.92-37.16,6.73-6.61,12.86-13.87,18.23-21.66,15.98-23.08,25.58-50.93,26.27-80.95.02-.97.03-1.95.03-2.92.02-.22.02-.44.02-.66,0-.78,0-1.54-.02-2.32-.41-62.43-19.35-120.45-51.63-168.84-12.28-18.44-26.49-35.46-42.33-50.78,0,0,0-.02-.02-.02-55.54-53.75-131.17-86.82-214.54-86.82-70.99,0-136.38,23.96-188.51,64.26-1.78,1.37-3.53,2.75-5.26,4.17-19.3,15.57-36.68,33.44-51.75,53.2-4.26,5.56-8.31,11.3-12.19,17.16-21.71,32.89-37.3,70.18-45.11,110.26-3.76,19.25-5.73,39.14-5.73,59.5,0,12.02.7,23.88,2.03,35.55,6.48,56.51,28.21,108.36,61.01,151.35.58.78,1.17,1.56,1.78,2.32,1,1.29,2.02,2.56,3.04,3.83.97,1.22,1.95,2.43,2.95,3.61,1.12,1.37,2.26,2.71,3.41,4.05.75.86,1.49,1.73,2.25,2.58.46.54.93,1.1,1.44,1.63,1.85,2.1,3.75,4.19,5.68,6.24.27.31.56.61.86.92.93.98,1.87,1.97,2.82,2.93,1.03,1.07,2.09,2.14,3.14,3.19,1.51,1.51,3.04,3,4.58,4.49.9.86,1.81,1.73,2.73,2.58.68.63,1.36,1.26,2.03,1.88.97.9,1.93,1.78,2.92,2.65.98.9,1.97,1.76,2.97,2.63,1,.88,2,1.75,3,2.59-24.51,6.87-46.44,19.84-64.08,37.19-6.66,6.53-12.72,13.7-18.06,21.4-16.18,23.29-25.88,51.44-26.47,81.8-.02.98-.03,1.97-.03,2.95v.05c0,.81,0,1.63.02,2.44.47,62.31,19.42,120.21,51.63,168.51,12.28,18.42,26.49,35.45,42.33,50.78,0,0,0,.02.02.02,55.54,53.73,131.17,86.8,214.56,86.8,70.98,0,136.37-23.96,188.51-64.28,1.76-1.36,3.51-2.73,5.24-4.14,19.32-15.59,36.7-33.46,51.75-53.22,4.26-5.56,8.33-11.28,12.19-17.15,21.71-32.89,37.29-70.18,45.11-110.26,3.76-19.25,5.73-39.14,5.73-59.5,0-12.02-.7-23.88-2.04-35.55-6.48-56.51-28.2-108.36-60.99-151.35Zm-19.4-191.33c0,36.72-29.77,66.5-66.5,66.5s-66.5-29.78-66.5-66.5,29.76-66.52,66.5-66.52,66.5,29.78,66.5,66.52Zm-97.96,189c-36.55,24.81-80.64,39.3-128.15,39.3s-91.62-14.48-128.17-39.3c36.55-24.81,80.66-39.3,128.17-39.3s91.6,14.48,128.15,39.3Zm-352.66-146.43c-2.63-13.86-4-28.17-4-42.79s1.41-29.27,4.09-43.3c5.8-30.22,17.54-58.33,33.97-83.04.65-.97,1.29-1.93,1.95-2.88,15.42-22.44,34.73-41.99,56.99-57.68.44-.31.88-.61,1.32-.93,36.94-25.64,81.81-40.69,130.2-40.69,13.13,0,26,1.1,38.53,3.24,54,9.18,101.56,37.28,135.6,77.27-4.78-.46-9.62-.7-14.52-.7-31.85,0-61.38,10.01-85.6,27.05-38.3,26.95-63.31,71.49-63.31,121.87,0,25.71,6.51,49.9,18,70.99-1.17-.1-2.36-.2-3.54-.31-1.87-.14-3.75-.27-5.63-.39-1.07-.07-2.15-.14-3.22-.19-1.09-.05-2.17-.1-3.26-.15-4.33-.19-8.67-.27-13.04-.27-27.31,0-53.78,3.54-78.98,10.21h-.02c-39.4,10.4-75.68,28.37-107.24,52.32-.76-1.07-1.53-2.15-2.27-3.24-17.54-25.54-30.02-54.83-36.01-86.41Zm-1.61,335.65c0-36.74,29.76-66.52,66.5-66.52s66.5,29.78,66.5,66.52-29.78,66.5-66.5,66.5-66.5-29.78-66.5-66.5Zm450.56,43.28c-5.8,30.22-17.55,58.34-33.99,83.07-.65.97-1.29,1.92-1.93,2.87-15.42,22.44-34.73,41.99-56.99,57.68-.44.31-.88.61-1.32.93-36.94,25.64-81.81,40.69-130.2,40.69-13.14,0-26.02-1.1-38.55-3.24-53.91-9.16-101.39-37.19-135.39-77.05,4.71.44,9.48.68,14.31.68,31.87,0,61.4-10.01,85.6-27.05,38.31-26.95,63.33-71.49,63.33-121.87,0-25.8-6.56-50.07-18.11-71.21,9.5.88,19.1,1.32,28.82,1.32,27.3,0,53.78-3.54,79-10.21,39.38-10.4,75.67-28.39,107.24-52.32.76,1.07,1.53,2.15,2.27,3.24,17.54,25.54,30.02,54.81,36.01,86.39,2.63,13.86,4,28.17,4,42.81s-1.41,29.27-4.09,43.28Z"/>
</svg>